<?xml version="1.0" encoding="utf-8"?>
<svg viewBox="17.805 83.683 265.864 241.829" xmlns="http://www.w3.org/2000/svg">
  <defs>
    <clipPath id="clip0_1_2">
      <rect width="35" height="31" fill="white" transform="matrix(-1 0 0 1 35 4.5)"/>
    </clipPath>
  </defs>
  <g clip-path="url(#clip0_1_2)" transform="matrix(7.249091, 0, 0, 7.249091, 25.156367, 57.033518)" style="">
    <path d="M0.518044 29.7006L13.8961 6.45466C14.5925 5.2431 15.8882 4.5 17.2892 4.5C19.8644 4.5 21.7432 6.94737 21.0629 9.42705L17.4998 22.4958L18.7226 23.2147L22.221 17.3265C22.9093 16.1634 24.1726 15.4607 25.525 15.4849C27.6791 15.5172 29.3635 17.3507 29.2258 19.4911L28.6671 28.0206V28.0448C29.3149 27.6167 30.0923 27.3663 30.9264 27.3663C33.1777 27.3663 35.0079 29.1918 35.0079 31.4372C35.0079 33.6826 33.1777 35.5081 30.9264 35.5081C28.6751 35.5081 26.845 33.6826 26.845 31.4372C26.845 31.1165 26.8531 31.106 26.8774 30.9445V30.9122C26.8936 30.8072 26.9098 30.7103 26.926 30.6053L27.7358 25.6701L26.8126 25.0563L21.7108 33.5615C20.9981 34.7488 19.7105 35.4838 18.3177 35.4838C15.7668 35.4838 13.888 33.1172 14.463 30.6456L17.4917 17.698L16.5604 17.3911L7.22327 33.5534C6.53493 34.7488 5.25543 35.4838 3.87066 35.4838C0.898654 35.4838 -0.963908 32.2772 0.518044 29.7006Z" style="fill: rgb(99, 91, 255);"/>
  </g>
</svg>